<?xml version="1.0" standalone="no"?>
<!DOCTYPE svg PUBLIC "-//W3C//DTD SVG 1.1//EN" "http://www.w3.org/Graphics/SVG/1.1/DTD/svg11.dtd" >
<!--
2013-9-30: Created.
-->
<svg>
<metadata>
Created by iconfont
</metadata>
<defs>

<font id="iconfont" horiz-adv-x="1024" >
  <font-face
    font-family="iconfont"
    font-weight="500"
    font-stretch="normal"
    units-per-em="1024"
    ascent="896"
    descent="-128"
  />
    <missing-glyph />
    
    <glyph glyph-name="fs-jt_down" unicode="&#58951;" d="M876 650L512 286 148 650l-84-84 448-448 84 84 364 364z"  horiz-adv-x="1024" />

    
    <glyph glyph-name="fs-cha" unicode="&#58952;" d="M512-64C264.6-64 64 136.6 64 384S264.6 832 512 832s448-200.6 448-448-200.6-448-448-448z m0 68.9c209.4 0 379.1 169.7 379.1 379.1S721.4 763.1 512 763.1 132.9 593.4 132.9 384 302.6 4.9 512 4.9z m0 427.8l121.8 121.8c13.5 13.5 35.3 13.5 48.7 0 13.5-13.5 13.5-35.3 0-48.7L560.7 384l121.8-121.8c13.5-13.5 13.5-35.3 0-48.7-13.5-13.5-35.3-13.5-48.7 0L512 335.3 390.2 213.4c-13.5-13.5-35.3-13.5-48.7 0-13.5 13.5-13.5 35.3 0 48.7L463.3 384 341.4 505.8c-13.5 13.5-13.5 35.3 0 48.7 13.5 13.5 35.3 13.5 48.7 0L512 432.7z"  horiz-adv-x="1024" />

    
    <glyph glyph-name="fs-jt_up" unicode="&#58953;" d="M960 202L596 566l-84 84L64 202l84-84 364 364 364-364z"  horiz-adv-x="1024" />

    
    <glyph glyph-name="fs-jingao" unicode="&#58954;" d="M512 832C264.6 832 64 631.4 64 384s200.6-448 448-448 448 200.6 448 448S759.4 832 512 832z m0-695c-37.6 0-68 30.4-68 68s30.4 68 68 68 68-30.4 68-68-30.4-68-68-68z m68 240c0-37.4-30.6-68-68-68s-68 30.6-68 68V563c0 37.4 30.6 68 68 68s68-30.6 68-68v-186z"  horiz-adv-x="1024" />

    
    <glyph glyph-name="fs-right" unicode="&#58955;" d="M512-64C264.6-64 64 136.6 64 384S264.6 832 512 832s448-200.6 448-448-200.6-448-448-448zM405 168l7.8 8.5L754 517.7l-48.7 48.7L404.8 266 250.6 420.2l-48.7-48.7 194.9-194.9 8.2-8.6z"  horiz-adv-x="1024" />

    
    <glyph glyph-name="fs-lianjie" unicode="&#58956;" d="M451 65.7l-43.2-45.4c-38.2-39.9-89.2-62.1-142.2-61.9-53-0.3-104.1 21.9-142.3 61.8-76.3 79-79.3 210.3-6.6 293.3 2.2 2.5 4.4 4.9 6.6 7.2l158.8 167.1c98.8 103.8 212.2 118.7 289 38 20.7-21.8 20.8-57.2 0.3-79.2-20.8-21.9-53.8-22.1-74.8-0.3-45.2 47.5-107-3.5-140.1-38.1l-158.8-167c-35.9-37.3-37.2-99.2-2.9-138.2 1-1.1 1.9-2.2 2.9-3.2 38-39.3 97.7-39.3 135.7 0l43.1 45.4c20.9 21.8 54 21.6 74.8-0.3 20.1-21.2 20.6-56 1.1-77.8-0.5-0.5-0.9-1-1.4-1.4z m449.8 381.4L731.3 272c-52.3-54.2-107.4-81.5-159.5-81.5-42.6 0-83.2 18.2-118.8 55-20.2 20.6-21 54.8-1.7 76.4 0.5 0.5 0.9 1 1.4 1.5 20.8 21.6 53.9 21.7 74.8 0.2 15.5-16 51.9-53.7 129.3 26.5l169.6 175.1c35.9 36.7 37.2 97.7 2.8 136-0.9 1-1.8 2-2.8 3-33.8 34.9-85.5 51.9-125.1 11l-53.9-55.6c-20.9-21.4-53.9-21.2-74.7 0.3-20.1 20.8-20.6 55-1.1 76.4 0.5 0.5 0.9 1 1.4 1.5l53.9 55.6c76.2 78.8 191.5 74.2 273.9-11 76.4-77.8 79.2-207 6.3-288.6-2-2.2-4.1-4.5-6.3-6.7z"  horiz-adv-x="1024" />

    
    <glyph glyph-name="fs-duangkai" unicode="&#58957;" d="M346.5 108.6l-31.5-32c-27.9-28.1-65.1-43.8-103.8-43.6-38.7-0.2-76 15.4-103.9 43.6-55.7 55.6-57.9 148.1-4.9 206.6 1.6 1.7 3.2 3.4 4.9 5.1L223.2 406c72.1 73.1 154.9 83.6 210.9 26.8 15.1-15.3 15.2-40.3 0.2-55.8-15.2-15.5-39.3-15.6-54.6-0.2-33 33.4-78.1-2.5-102.2-26.8L161.6 232.2c-26.2-26.3-27.2-69.8-2.1-97.3 0.7-0.8 1.4-1.5 2.1-2.2 27.7-27.7 71.3-27.7 99 0l31.5 32c15.3 15.3 39.4 15.2 54.6-0.2 14.7-14.9 15-39.5 0.8-54.8-0.3-0.5-0.7-0.8-1-1.1zM907.3 419l-134-112c-41.4-34.7-83.1-50.3-121-47-31 2.7-59.4 18.1-83 46.2-13.4 15.7-11.9 39.8 3.5 53.7 0.4 0.3 0.7 0.7 1.1 1 16.5 13.8 40.5 11.8 54.4-4.6 10.3-12.2 34.4-41 95.7 10.3l134 112c28.4 23.5 33 66.2 10.4 95.3-0.6 0.8-1.2 1.5-1.9 2.3-22.4 26.6-59 41.8-90.3 15.7l-42.6-35.6c-16.5-13.7-40.5-11.5-54.3 5-13.3 15.8-11.6 39.9 3.9 53.7 0.4 0.3 0.7 0.6 1.1 1l42.6 35.6c60.3 50.4 143.8 39.9 198.5-25.1 50.7-59.5 44.9-150.3-13.1-202.9-1.6-1.7-3.3-3.2-5-4.6zM456.4 828.8c18.1 0 32.7-14.6 32.7-32.7v-196.2c0-18.1-14.6-32.7-32.7-32.7s-32.7 14.6-32.7 32.7V796.1c0 18 14.7 32.7 32.7 32.7z m67.9-704.2c16.9-6.5 25.3-25.4 18.8-42.3l-46.9-122.1c-6.5-16.9-25.4-25.3-42.3-18.8s-25.3 25.4-18.8 42.3L482 105.8c6.5 16.8 25.4 25.3 42.3 18.8z m167.4 19.5c14.4 10.9 34.9 8 45.8-6.4l78.7-104.5c10.9-14.4 8-34.9-6.4-45.8-14.4-10.9-34.9-8-45.8 6.4l-78.7 104.5c-10.9 14.4-8 34.9 6.4 45.8z m-468 566.4c14.2 11.1 34.8 8.6 45.9-5.6l80.5-103.1c11.1-14.2 8.6-34.8-5.6-45.9s-34.8-8.6-45.9 5.6l-80.5 103.1c-11.1 14.3-8.6 34.8 5.6 45.9zM669 750.2c15.6-9 21-29 12-44.7l-65.4-113.3c-9-15.6-29-21-44.7-12-15.6 9-21 29-12 44.7l65.4 113.3c9.1 15.7 29.1 21 44.7 12z"  horiz-adv-x="1024" />

    
    <glyph glyph-name="fs-shuaxin" unicode="&#58958;" d="M94.7 429.2c17.6-3.2 34.6 8.1 38.3 25.5 34.2 180.8 193.2 311.8 378.5 311.8 184.8 0 343.5-130.3 378.2-310.4 1-7.3 4.5-13.9 9.5-18.8 6-5.9 14.2-9.5 23.2-9.5 2-0.2 4.1-0.2 6.1 0 8.7 1.6 16.4 6.6 21.4 13.9 4.2 6.2 6.1 13.7 5.5 21.2V635.5c0 18.1-14.8 32.8-33 32.8s-33-14.7-33-32.8v-6.7C808.1 752.4 667.8 832 511.5 832 294.4 832 108 678.4 68 466.5c-2.7-17.6 9.1-34.2 26.7-37.3zM953.1 349.7c-5.3 6.9-13.3 11.5-22 12.6-18.1 2.5-34.9-10.2-37.4-28.4-25.2-190.1-188.5-332.2-381.6-332.2-193 0-356.3 142.1-381.6 332.2-1.6 11.7-9.3 21.7-20.3 26.2s-23.6 2.8-33-4.4c-0.8-0.6-1.5-1.2-2.2-1.8-0.3-0.3-0.7-0.6-1-0.9-0.1 0-0.1-0.1-0.2-0.1-6-5.9-9.8-14.2-9.8-23.3v-174.9c0-18.1 14.8-32.8 33-32.8 15.6 0 28.6 10.7 32.1 25C209.4 19.5 351.7-63.7 511.5-64c226.6-0.2 418.3 166.2 448.2 389.2 1.1 8.7-1.2 17.5-6.6 24.5z"  horiz-adv-x="1024" />

    
    <glyph glyph-name="fs-back" unicode="&#58967;" d="M512 832C267.1 832 64 628.9 64 384s203.1-448 448-448 448 203.1 448 448S756.9 832 512 832z m0-836.3C297-4.3 123.7 169 123.7 384S297 772.3 512 772.3 900.3 599 900.3 384 727-4.3 512-4.3zM362.7 413.9l101.5 89.6-41.8 47.8L243.2 384l173.2-179.2 41.8 41.8-101.5 107.5h424.1v59.7H362.7z"  horiz-adv-x="1024" />

    
    <glyph glyph-name="fs-shuju" unicode="&#58968;" d="M64 344.2h59.7v-219H64v219z m139.4 59.7h59.7v-278.8h-59.7V403.9z m139.4 39.8h59.7v-318.6h-59.7V443.7z m139.3 199.1h59.7v-517.7h-59.7V642.8z m139.4-278.7h59.7v-238.9h-59.7V364.1z m139.4-39.8h59.7v-199.1h-59.7V324.3z m139.4-39.9H960v-159.3h-59.7V284.4z"  horiz-adv-x="1024" />

    
    <glyph glyph-name="qyyx_comment" unicode="&#58970;" d="M318.4 463.7c-26 0-47.1-24-47.1-53.5s21.1-53.5 47.1-53.5 47.1 24 47.1 53.5c-0.1 29.6-21.1 53.5-47.1 53.5z m193.7 0c-26 0-47.1-24-47.1-53.5s21.1-53.5 47.1-53.5 47.1 24 47.1 53.5c0 29.6-21.1 53.5-47.1 53.5z m193.7 0c-26 0-47.1-24-47.1-53.5s21.1-53.5 47.1-53.5 47.1 24 47.1 53.5c0 29.6-21.1 53.5-47.1 53.5zM512.1 775.5C265 775.5 64 616 64 420.1c0-107.4 58.9-206.8 162.2-274.3-2.3-10.6-7.5-26.9-10.9-37.6-12.1-37.7-21.6-67.5-11.4-91.6 4.5-10.5 12.3-18.3 22-22 3.7-1.4 7.3-2.1 11.1-2.1 18 0 40.3 15.5 87.2 49.8 18.1 13.2 44.6 32.6 55.8 38 42.6-10.3 87-15.6 132.1-15.6 247.1 0 448 159.4 448 355.5 0.1 195.8-200.9 355.3-448 355.3z m0-645.4c-42.8 0-84.9 5.2-125.1 15.4-19.1 4.9-38.7-7.8-94-48.2-7.7-5.7-17-12.4-25.9-18.8 0.8 2.6 1.6 5.1 2.3 7.3 13.5 42.2 28.8 90-4.6 110.5-91 55.9-143.2 137.5-143.2 223.9 0 159.8 175.1 289.9 390.5 289.9S902.6 580 902.6 420.2c0-160-175.2-290.1-390.5-290.1z"  horiz-adv-x="1024" />

    
    <glyph glyph-name="qyyx_selection" unicode="&#58971;" d="M904 832H120c-30.9 0-56-25.1-56-56v-784c0-30.9 25.1-56 56-56h784c30.9 0 56 25.1 56 56V776c0 30.9-25.1 56-56 56zM786.6 512.8L472.4 198.6c-7.5-7.5-17.7-11.7-28.3-11.7h-0.3c-10.7 0.1-21 4.5-28.4 12.2L236.9 383.5c-15.4 15.9-14.9 41.2 0.9 56.6 15.9 15.4 41.2 14.9 56.6-0.9L444.5 284 730 569.4c15.6 15.6 40.9 15.6 56.6 0 15.6-15.6 15.6-40.9 0-56.6z"  horiz-adv-x="1024" />

    
    <glyph glyph-name="qyyx_picture" unicode="&#58972;" d="M876 753.7H148.1c-46.3 0-84.1-35.5-84.1-79.2v-580.9c0-43.7 37.6-79.2 84.1-79.2h727.8c46.3 0 84.1 35.5 84.1 79.2V674.4c0 43.8-37.6 79.3-84 79.3m-727.8-52.9h727.9c15.3 0 27.8-11.8 27.9-26.4v-311.1c-45 35-123.4 82-217.2 82-86.5 0-171.9-63.3-254.3-124.3-63.3-46.9-128.5-95.4-174.4-95.4-64.3 0-119.4 44.5-138 61.6V674.4c0.1 14.7 12.7 26.5 28.1 26.4M876.1 67H148.2c-15.4-0.1-27.9 11.7-28 26.4V218.8c33.6-22.4 82.1-46 138-46 65.3 0 135.1 51.8 209 106.6 75 55.6 152.5 113.1 219.6 113.1 120.4 0 215.8-99.9 216.8-101l0.4 0.4v-198.5c-0.1-14.6-12.6-26.4-27.9-26.4M343.8 383.7c62 0 112.2 47.4 112.2 105.8 0 58.3-50.2 105.8-112.2 105.8s-112.2-47.4-112.2-105.8 50.3-105.8 112.2-105.8m0.4 158.8c30.8 0 55.8-23.6 55.8-52.6s-25-52.6-55.8-52.6-55.8 23.6-55.8 52.6c0 28.9 25 52.6 55.8 52.6"  horiz-adv-x="1024" />

    
    <glyph glyph-name="qyyx_troubleshooting" unicode="&#58973;" d="M97 641h228c18.1 0 33 14.8 33 33 0 18.1-14.8 33-33 33H97c-18.1 0-33-14.8-33-33s14.8-33 33-33zM97 376h139c18.1 0 33 14.8 33 33 0 18.1-14.8 33-33 33H97c-18.1 0-33-14.8-33-33s14.8-33 33-33zM502 200H97c-18.1 0-33-14.8-33-33s14.8-33 33-33h405c18.1 0 33 14.8 33 33s-14.8 33-33 33zM962 498c0 154.6-125.4 280-280 280S402 652.6 402 498c0-143.5 107.9-261.7 247-278.1V24c0-18.2 14.8-33 33-33 18.1 0 33 14.8 33 33V219.9C854.1 236.3 962 354.5 962 498zM682 284c-118.2 0-214 95.8-214 214s95.8 214 214 214 214-95.8 214-214-95.8-214-214-214z"  horiz-adv-x="1024" />

    
    <glyph glyph-name="qyyx_screen" unicode="&#58974;" d="M871.2 295.2H602.3c-18 0-32.7-14.7-32.7-32.7 0-18 14.7-32.7 32.7-32.7h268.9c18 0 32.7 14.7 32.7 32.7 0 18-14.7 32.7-32.7 32.7zM871.2 184.1H602.3c-18 0-32.7-14.7-32.7-32.7 0-18 14.7-32.7 32.7-32.7h268.9c18 0 32.7 14.7 32.7 32.7 0 17.9-14.7 32.7-32.7 32.7zM870.2 69H601.3c-18 0-32.7-14.7-32.7-32.7 0-18 14.7-32.7 32.7-32.7h268.9c18 0 32.7 14.7 32.7 32.7 0 17.9-14.7 32.7-32.7 32.7zM184.5 766.5h640.1c0.9 0 2.9-0.1 5-0.5-0.1-0.2-0.2-0.5-0.3-0.8l-173-204.1-35-37c-2.6-2.7-13.2-14.5-22.9-35-13.1-27.8-18.5-59.8-15.8-92.5 1.5-18 17.3-31.4 35.3-29.9 18 1.5 31.4 17.3 29.9 35.3-4 48.5 19.4 75.3 20.9 77l36.4 38.4L885 729.7l1.8 3.8c16.1 33.4 9.2 56.1 0.7 69.3C868.9 831.2 832 832.2 823.1 832H180.6c-33.2 0-49-15-56.4-27.6-17.5-29.5 0.2-64.8 3.9-71.5l1.5-2.8 226.3-271.3 0.8-0.9c4.1-4.5 6.8-23.1 5.6-37.6l-0.1-1.4v-450.1c0-18.1 14.7-32.7 32.7-32.7 18.1 0 32.7 14.7 32.7 32.7V415.9c1 12.5 2.5 57.6-21.8 85.3L184.5 766.5z"  horiz-adv-x="1024" />

    
    <glyph glyph-name="qyyx_wait" unicode="&#58975;" d="M578.377 765.6h-132.8c-18.3 0-33.2 14.9-33.2 33.2 0 18.3 14.9 33.2 33.2 33.2h132.7c18.3 0 33.2-14.9 33.2-33.2 0-18.3-14.8-33.2-33.1-33.2z m252-193.1c49.9-66.5 79.9-148.9 79.9-238.3-0.1-219.6-178.7-398.2-398.3-398.2s-398.2 178.6-398.2 398.2 178.6 398.2 398.2 398.3c102.2 0 200.5-39.6 274.3-110.3l34.1 34.1c13 13 34 13 46.9 0 13-13 13-34 0-46.9l-36.9-36.9z m-285.2-568.4c156.9 16 281 140 297 297h-31.5c-18.3 0-33.2 14.9-33.2 33.2s14.9 33.2 33.2 33.2h31.5c-16 156.9-140.1 281-297 297V633c0-18.3-14.9-33.2-33.2-33.2-18.3 0-33.2 14.9-33.2 33.2v31.5c-156.9-16-281-140-297-297h31.5c18.3 0 33.2-14.9 33.2-33.2s-14.8-33.3-33.1-33.3h-31.5c16-156.9 140-281 297-297v31.5c0 18.3 14.9 33.2 33.2 33.2 18.3 0 33.2-14.9 33.2-33.2v-31.4z m112 488.8c14.2 10.9 34.4 8.6 45.8-5.1 11.7-14.1 9.7-35-4.4-46.7l-165.8-132.8c-14.3-11.5-35.2-9.1-46.6 5.2-11.5 14.3-9.1 35.2 5.2 46.6l165.8 132.8z"  horiz-adv-x="1024" />

    
    <glyph glyph-name="qyyx_video" unicode="&#58976;" d="M960 672.2c0 43.7-37.3 78.8-84 78.8H148c-46.7 0-84-35-84-78.8v-577.5c0-43.7 37.3-78.7 84-78.7h728c46.7 0 84 35 84 78.7V672.2z m-56-577.5c0-14-13.1-26.2-28-26.2H148c-14.9 0-28 12.2-28 26.2V672.2c0 14 13.1 26.2 28 26.2h728c14.9 0 28-12.2 28-26.2v-577.5zM663.2 430.8L439.2 541c-14.9 7-35.5 7-50.4-1.7-14.9-8.8-26.1-22.8-26.1-36.8v-245c0-15.8 13.1-31.5 28-38.5 7.5-3.5 16.8-5.2 24.3-5.2 9.3 0 18.7 1.7 26.1 7l224 133c14.9 8.8 22.4 22.8 22.4 38.5s-9.4 31.5-24.3 38.5zM418.7 275V488.5l196-96.2-196-117.3z"  horiz-adv-x="1024" />

    
    <glyph glyph-name="mt_picture_" unicode="&#58977;" d="M756.4 832C868.8 832 960 740.8 960 628.4v-488.7C960 27.2 868.8-64 756.4-64H267.6C155.2-64 64 27.2 64 139.6V628.4C64 740.8 155.2 832 267.6 832h488.8z m0-81.5H267.6c-67.5 0-122.2-54.7-122.2-122.2v-405L432.5 384l169-91.9 277.1 180.5V628.4c-0.1 67.4-54.8 122.1-122.2 122.1z m-386.9-81.4c56.2 0 101.8-45.6 101.8-101.8s-45.6-101.8-101.8-101.8S267.6 511 267.6 567.3s45.6 101.8 101.9 101.8z"  horiz-adv-x="1024" />

    
    <glyph glyph-name="mt_fire" unicode="&#58978;" d="M652.5-41.2C965 78 974 305.8 790.3 610.6 787 534 776 484 676.7 456.1 700 681 571.7 839.9 439.8 831.6 435 709 303.5 615.3 233.7 551.2 79 409 12.1 137.9 332.3-64c5 201.1 59.7 323.6 163.9 367.4 0 0 30.4-29.9 42.8-59.4 16-38 24.3-87.2 24.3-87.2l89.2 81.7S670.7 205.8 678 122c7-80-25.5-163.2-25.5-163.2z"  horiz-adv-x="1024" />

    
    <glyph glyph-name="mt_picture_1" unicode="&#58979;" d="M960 778.2v-788.5H64V778.2h896zM135.7 61.4h593.5L270.1 475.1 132 366m756.3-304.6V290.1l-121.4 81-133.1-127.2L838 60m50.3 646.6H135.7v-255.3l134.7 120.1 310-279.4 178.5 170.6 129.4-86.4V706.6z m-322.5-71.7c39.6 0 71.7-32.1 71.7-71.7s-32.1-71.7-71.7-71.7-71.7 32.1-71.7 71.7 32.1 71.7 71.7 71.7z"  horiz-adv-x="1024" />

    
    <glyph glyph-name="mt_v" unicode="&#58980;" d="M352 742.4l160-410.2 222.5 410.2H960L583.3 25.6h-120L64 742.4z"  horiz-adv-x="1024" />

    
    <glyph glyph-name="mt_video_" unicode="&#58981;" d="M130.4 664.9v-66.4h38.8c13.7 38.7 50.5 66.4 93.9 66.4h365c55 0 99.6-44.6 99.6-99.6v-28.8h127.4v95.1H960v-495.4H855.1v83l-127.4-16.6c0-55-44.6-99.6-99.6-99.6h-365c-55 0-99.6 44.6-99.6 99.6V335.4h-33.2V269H64V664.9h66.4z m497.7-66.4h-365c-18.3 0-33.2-14.9-33.2-33.2v-362.7c0-18.3 14.9-33.2 33.2-33.2h365c18.3 0 33.2 14.9 33.2 33.2V565.3c0 18.4-14.8 33.2-33.2 33.2z m166-132.7h-66.4V269h66.4V465.8z m-232.3-41.2V304H329.5V424.6h232.3z"  horiz-adv-x="1024" />

    
    <glyph glyph-name="mt_video_1" unicode="&#58982;" d="M698.7 682.7v-124.4L960 645.4v-560L698.7 201.5v-116.1H64V682.7h634.7zM624 608H138.7v-448H624V608z m261.3-74.7l-186.7-74.7v-149.3l186.7-74.7V533.3z"  horiz-adv-x="1024" />

    
    <glyph glyph-name="mt_picture_2" unicode="&#58983;" d="M960 737.7v-707.4H64V737.7h896zM158.3 124.6h642.6L657.3 317.4 521.1 166.9 320.9 370.6 157 227m708.7 416.4H158.3v-289.6l167.5 146.4 192.5-195.8 146.1 161.4 201.3-270.3V643.4z m-306.5-47.2c39.1 0 70.7-31.7 70.7-70.7s-31.7-70.7-70.7-70.7-70.7 31.7-70.7 70.7 31.6 70.7 70.7 70.7z"  horiz-adv-x="1024" />

    
    <glyph glyph-name="mt_video_2" unicode="&#58984;" d="M870.4 832c49.5 0 89.6-40.1 89.6-89.6v-716.8c0-49.5-40.1-89.6-89.6-89.6H153.6c-49.5 0-89.6 40.1-89.6 89.6V742.4c0 49.5 40.1 89.6 89.6 89.6h716.8z m-454-231.3c-17.3 9.8-38.5 9.8-55.8 0l-5.5-3.6c-14-10.3-22.3-26.6-22.4-44v-382.9c0-19.6 10.6-37.8 27.9-47.6l5.9-2.9c16.1-6.8 34.5-5.8 49.9 2.9L752.9 314c17.2 9.8 27.9 28 27.9 47.6l-0.4 6.5c-2.1 17.1-12.2 32.4-27.5 41.1L416.4 600.7z"  horiz-adv-x="1024" />

    
    <glyph glyph-name="qyyx_comment_" unicode="&#58985;" d="M906.4 605.7c-17 40-41.3 76-72.3 107s-66.9 55.3-107 72.3c-41.5 17.6-85.5 26.6-130.8 26.6H418.6c-45.3 0-89.3-8.9-130.8-26.6-40-17-76-41.3-107-72.3s-55.3-66.9-72.3-107C90.9 564.2 82 520.2 82 474.9s8.9-89.3 26.6-130.8c17-40 41.3-76 72.3-107 30.9-30.9 66.9-55.3 107-72.3 41.5-17.6 85.5-26.6 130.8-26.6h70.8v-193.5c0-12 7.3-22.8 18.5-27.2 3.5-1.4 7.2-2.1 10.8-2.1 7.9 0 15.7 3.2 21.3 9.2l305.6 324.6c25.5 28.1 45.9 59.9 60.7 94.8C924 385.5 933 429.5 933 474.8c0 45.4-8.9 89.4-26.6 130.9z m-102.3-315l-256-272V196.9H418.6c-73.9 0-143.6 29-196.3 81.7-52.7 52.7-81.7 122.4-81.7 196.3s29 143.6 81.7 196.3 122.4 81.7 196.3 81.7h177.8c73.9 0 143.6-29 196.3-81.7 52.7-52.7 81.7-122.4 81.7-196.3 0-68.4-24.9-133.2-70.3-184.2z"  horiz-adv-x="1024" />

    
    <glyph glyph-name="mt_reply" unicode="&#58986;" d="M651.5 491h-408c-16.2 0-29.5-13.3-29.5-29.5v-1c0-16.2 13.3-29.5 29.5-29.5h408c16.2 0 29.5 13.3 29.5 29.5v1c0 16.2-13.3 29.5-29.5 29.5zM439.5 338h-196c-16.2 0-29.5-13.3-29.5-29.5v-1c0-16.2 13.3-29.5 29.5-29.5h196c16.2 0 29.5 13.3 29.5 29.5v1c0 16.2-13.3 29.5-29.5 29.5zM886.7 793.5H249.5c-38.6 0-70-31.4-70-70V680H136c-38.6 0-70-31.4-70-70v-415c0-38.6 31.4-70 70-70h68v-173.2l33 3.3c1.9 0.2 46.5 4.9 94.6 31.6 35 19.4 85.2 71.7 113.6 138.2h328c38.6 0 70 31.4 70 70v43.5h43.5c38.6 0 70 31.4 70 70v415c0 38.7-31.4 70.1-70 70.1zM783.2 195c0-5.4-4.6-10-10-10H402.1c-13.1-54.3-53-119.2-97.9-144.8-14.3-8.1-28.4-13.8-40.2-17.6V185H136c-5.4 0-10 4.6-10 10V610c0 5.4 4.6 10 10 10h637.2c5.4 0 10-4.6 10-10v-415z m113.5 113.5c0-5.4-4.6-10-10-10h-43.5V610c0 38.6-31.4 70-70 70H239.5v43.5c0 5.4 4.6 10 10 10h637.2c5.4 0 10-4.6 10-10v-415z"  horiz-adv-x="1024" />

    
    <glyph glyph-name="mt_follow" unicode="&#58987;" d="M839.5 232.3h-98v100c0 17-14 31-31 31h-3c-17 0-31-13.9-31-31v-100h-99c-17 0-31-13.9-31-31v-3c0-17 14-31 31-31h99v-97c0-17 14-31 31-31h3c17 0 31 14 31 31v97h98c17 0 31 14 31 31v3c0 17.1-14 31-31 31zM944.4 630.9c-13.6 31.1-33 59.1-57.5 83.2-24.3 23.9-52.4 42.8-83.4 56-32.2 13.7-65.8 20.7-100 20.7-74.4 0-144.1-31.2-193.4-85-19.2 20.2-41.6 37.4-66 50.9-38.3 21-81 32.1-123.5 32.1-70.1 0-136-27.3-185.6-76.9-49.7-49.5-77-115.5-77-185.6 0-57.1 18.1-111.4 51.6-156.4 1.5-3.1 3.4-6 5.9-8.5l6.2-6.4c4.2-4.9 8.6-9.6 13.2-14.2 1.7-1.7 3.4-3.4 5.2-5l321.5-336.3 0.9-0.9c3.7-3.6 23.5-21.3 51.1-21.3h1.2c12.2 0.2 30.3 4.2 47.1 21.6 17.1 17.7 36.5 36.5 36.6 36.6 12.9 12.5 13.3 33 0.8 46-12.5 12.9-33 13.3-46 0.8-0.8-0.8-20.4-19.7-38.4-38.4-0.9-0.9-1.5-1.4-1.9-1.6-1.4 0.3-4 1.7-5.7 3.1l-290.4 304-3.4 4c-1.1 0.9-2 1.7-2.7 2.5l-2.1 2.2c-1.9 2.2-3.6 4.3-7.5 7.9l-8.7 9.2c-1.8 2.2-3.7 4.3-5.7 6.2-0.8 0.7-1.5 1.4-2.3 2.2l-12.9 13.5c-30.2 34.7-48.5 80-48.5 129.4 0 108.9 88.6 197.5 197.5 197.5 31.6 0 63.5-8.3 92.3-24.1 28.3-15.5 52.8-37.8 71-64.4l27.5-40.2 26.6 40.8c36.7 56.3 98.6 89.9 165.6 89.9 50.1 0 100.4-21.2 137.8-58 38.5-37.9 59.7-87.4 59.7-139.5 0-57.8-24.9-109.8-64.6-145.9-8.4-6-13.9-15.9-13.9-27.1 0-18.2 14.6-33 32.5-33 9.6 0 18.2 4.2 24.2 11 3.4 3 6.7 6.2 9.9 9.4 49.6 49.6 76.9 115.5 76.9 185.6-0.1 35.2-7.4 69.7-21.7 102.4z"  horiz-adv-x="1024" />

    
    <glyph glyph-name="mt_good" unicode="&#58988;" d="M880.5 538.9c-35 9.2-117.3 9-237.7 12.2 5.7 26.3 7 50 7 92C650 743.5 576.7 832 512 832c-45.8 0-83.4-37.4-84-83.4-0.6-56.3-17.9-153.7-112-203.1-6.9-3.6-26.6-13.3-29.4-14.6l1.4-1.3a88.677 88.677 0 0 1-56 22.4h-84c-46.4 0-83.9-37.6-84-84v-448c0-46.3 37.7-84 84-84h84c32.2 0.3 61.3 19.1 74.7 48.4l1.3-0.4 6.7-1.8c0.4 0 0.7-0.1 1.3-0.3 16.2-4 47.2-11.4 113.5-26.6 14.4-3.2 89.4-19.3 167.2-19.3h153.1c46.7 0 81.2 17.4 100.2 54 18.7 32.5 110 206.8 109.9 452.6 0.1 35.3-24.4 80.5-79.4 96.3zM260 20c0-15.4-12.6-28-28-28h-84c-15.5 0-28 12.5-28 28V468.1c0 15.4 12.6 28 28 28h84c15.5 0 28-12.6 28-28V20z m643.3 405c-11.7-281.3-102.6-408.6-102.6-408.6-8.5-15.3-22.1-24.4-51-24.4h-153c-76.9 0-153.2 17.4-155.1 17.9-116.3 26.7-122.4 28.8-129.7 30.9l4 411.4c0 42.5 0.9 31.8 0 31.2 127.9 52.9 166.9 169.1 168 264.5 0 15.4 12.6 27.9 28 28 29.6 0 81.9-59.4 81.9-133 0-66.4-2.7-77.8-25.9-147 279.9 0 278.1-4 302.7-10.5 30.7-8.8 33.2-34.1 33.2-42.9 0.1-9.5-0.1-8.2-0.5-17.5z"  horiz-adv-x="1024" />

    
    <glyph glyph-name="fs-connect1" unicode="&#58991;" d="M866 261.5c4.3 22.4 6.5 45.3 6.5 68.5 0 48.9-9.6 96.3-28.5 140.9-18.2 43.1-44.3 81.8-77.6 115.1s-72 59.3-115.1 77.6c-5 2.1-10 4.1-15 5.9 0.1 1.5 0.1 3 0.1 4.5 0 69.5-56.5 126-126 126s-126-56.5-126-126c0-1.5 0-3 0.1-4.5-5-1.9-10-3.8-15-5.9-43.1-18.2-81.8-44.3-115.1-77.6s-59.3-72-77.6-115.1c-18.9-44.6-28.5-92-28.5-140.9 0-23.7 2.3-47.1 6.7-69.9-38.6-21.6-64.7-62.8-64.7-110.1 0-69.5 56.5-126 126-126 26 0 50.1 7.9 70.2 21.4 25.3-19.9 53-36.4 82.9-49 44.6-18.9 92-28.5 140.9-28.5 48.9 0 96.3 9.6 140.9 28.5 30.4 12.9 58.6 29.6 84.3 50.1 20.4-14.2 45.2-22.5 71.8-22.5 69.5 0 126 56.5 126 126 0.2 48.4-27.2 90.4-67.3 111.5zM510.5 770c52.9 0 96-43.1 96-96s-43.1-96-96-96-96 43.1-96 96 43.1 96 96 96z m-390-620c0 52.9 43.1 96 96 96s96-43.1 96-96-43.1-96-96-96-96 43.1-96 96z m390-152c-73.4 0-143.2 23.7-200.7 67.5 20.3 22.4 32.7 52 32.7 84.5 0 69.5-56.5 126-126 126-11.4 0-22.4-1.5-32.9-4.4-3.4 19.1-5.1 38.6-5.1 58.4 0 88.7 34.5 172.1 97.2 234.8 32.9 32.9 71.5 58 113.6 74.5C404.4 586.7 453 548 510.4 548c57.4 0 106 38.6 121.1 91.3 42.1-16.5 80.7-41.6 113.6-74.5 62.7-62.7 97.2-146.1 97.2-234.8 0-19.5-1.7-38.8-5-57.6-9.6 2.4-19.7 3.6-30 3.6-69.5 0-126-56.5-126-126 0-31.8 11.9-61 31.4-83.2-57.5-44.6-128-68.8-202.2-68.8z m297 56c-52.9 0-96 43.1-96 96s43.1 96 96 96 96-43.1 96-96-43.1-96-96-96zM539 445h-56.1v-109.7H374v-56.1h108.9V172H539V279.2h108v56.1H539z"  horiz-adv-x="1024" />

    
    <glyph glyph-name="fs-disconnect1" unicode="&#58992;" d="M866 261.5c4.3 22.4 6.5 45.3 6.5 68.5 0 48.9-9.6 96.3-28.5 140.9-18.2 43.1-44.3 81.8-77.6 115.1s-72 59.3-115.1 77.6c-5 2.1-10 4.1-15 5.9 0.1 1.5 0.1 3 0.1 4.5 0 69.5-56.5 126-126 126s-126-56.5-126-126c0-1.5 0-3 0.1-4.5-5-1.9-10-3.8-15-5.9-43.1-18.2-81.8-44.3-115.1-77.6s-59.3-72-77.6-115.1c-18.9-44.6-28.5-92-28.5-140.9 0-23.7 2.3-47.1 6.7-69.9-38.6-21.6-64.7-62.8-64.7-110.1 0-69.5 56.5-126 126-126 26 0 50.1 7.9 70.2 21.4 25.3-19.9 53-36.4 82.9-49 44.6-18.9 92-28.5 140.9-28.5 48.9 0 96.3 9.6 140.9 28.5 30.4 12.9 58.6 29.6 84.3 50.1 20.4-14.2 45.2-22.5 71.8-22.5 69.5 0 126 56.5 126 126 0.2 48.4-27.2 90.4-67.3 111.5zM510.5 770c52.9 0 96-43.1 96-96s-43.1-96-96-96-96 43.1-96 96 43.1 96 96 96z m-390-620c0 52.9 43.1 96 96 96s96-43.1 96-96-43.1-96-96-96-96 43.1-96 96z m390-152c-73.4 0-143.2 23.7-200.7 67.5 20.3 22.4 32.7 52 32.7 84.5 0 69.5-56.5 126-126 126-11.4 0-22.4-1.5-32.9-4.4-3.4 19.1-5.1 38.6-5.1 58.4 0 88.7 34.5 172.1 97.2 234.8 32.9 32.9 71.5 58 113.6 74.5C404.4 586.7 453 548 510.4 548c57.4 0 106 38.6 121.1 91.3 42.1-16.5 80.7-41.6 113.6-74.5 62.7-62.7 97.2-146.1 97.2-234.8 0-19.5-1.7-38.8-5-57.6-9.6 2.4-19.7 3.6-30 3.6-69.5 0-126-56.5-126-126 0-31.8 11.9-61 31.4-83.2-57.5-44.6-128-68.8-202.2-68.8z m297 56c-52.9 0-96 43.1-96 96s43.1 96 96 96 96-43.1 96-96-43.1-96-96-96zM627.2 405.9l-39.7 39.7-77.6-77.6-77 77-39.7-39.7 77-77-75.8-75.8 39.7-39.7 75.8 75.8 76.4-76.4 39.7 39.7-76.4 76.4z"  horiz-adv-x="1024" />

    
    <glyph glyph-name="mt_share" unicode="&#58989;" d="M481.8 768c20.5 0 32.1-15.6 32.1-31.1s-11.6-31.1-27.1-31.1H179.9c-38.7 0-64.7-30-64.7-72.8v-558.2c0-42.8 26-72.8 64.7-72.8h609.2c38.7 0 69.7 30 69.7 72.8v281c0 15.6 19.6 31.1 35.1 31.1s34.1-15.6 34.1-35v-311c0-58.3-42.6-105-92.9-105H146.2c-50.3 0-92.9 46.7-92.9 105V663c0 58.3 42.6 105 92.9 105h-5 340.6zM741 831.8c2.4 0 4.9-0.5 7.2-1.5 5.1-2.2 9-6.5 12.7-10.7 5-6.6 23.3-26.2 28.2-31.7l31.5-35.4c20.4-23 40.9-46 61.3-69 28.3-31.8 56.5-63.6 84.8-95.4 1.2-1.2 3-3.3 3.2-5.2 0.3-3.2-3.2-6.6-3.2-6.6l-210.2-236c-3.9-3.9-11.7-3.9-15.6-3.9-15.6 0-31.1 15.7-31.1 35.4 0 3.9 0 11.8 3.9 15.7l3.9 3.9 136.2 153.4h-144c-190.7-23.6-233.5-141.6-253-385.4v-7.9c-3.9-11.8-15.6-23.6-31.1-23.6-15.6 0-31.1 15.7-31.1 35.4 0 54.4 10.6 112.4 22.1 165.5 10 46.1 24.2 91.7 46.9 133.2 45.1 82.4 122.4 131.8 213.1 151.5 58.4 12.7 121.6 6 181.1 6-45.6 51.1-91.3 102.1-136.9 153.2-3.6 4.1-7.4 8.3-9.4 13.3-3.7 9.1-2.9 24.1 1.5 32.8 6 12.2 17.6 13.2 28 13z"  horiz-adv-x="1024" />

    
    <glyph glyph-name="mt_qiche_newposts" unicode="&#58994;" d="M869.8 480.4v56H664.4c-49.4-1.4-53.4 10.6-56 37.3-2 38.6-2 120.8 0 242.7h-56V779c-1.8-104.5-1-176 0-224 0.6-53.1 34.6-75.1 112-74.7h205.4zM610 829c8.4-4.4 23-17 24.1-18.7l0.4-0.5 232.2-216.7s17.2-15.9 20.4-23.2c3-6.9 2.7-28.2 2.7-28.2v-455.4c0-78.4-71-149.3-149.3-149.3h-448c-97 0-168 70.9-168 149.3V683.7c0 78.4 71 149.3 149.3 149.3H580s22.4 0 30-4z m-19-52H292.3c-66 0-112-45.9-112-93.3v-597.3c0-47.5 46-93.3 112-93.3h448c47.4 0 93.3 45.9 93.3 93.3v448L591 777z m65.3-541.3c15.5 0 28-12.5 28-28s-12.5-28-28-28H357.7c-15.5 0-28 12.5-28 28s12.5 28 28 28h298.6z m-168 168c15.5 0 28-12.5 28-28s-12.5-28-28-28H357.7c-15.5 0-28 12.5-28 28s12.5 28 28 28h130.6z"  horiz-adv-x="1024" />

    
    <glyph glyph-name="qyyx_qiche_comment" unicode="&#58993;" d="M629.3 320h-256c-17.7 0-32-14.3-32-32s14.3-32 32-32h256c17.7 0 32 14.3 32 32s-14.3 32-32 32zM947.8 17.3l-65.7 114C932.5 205.1 960 292.5 960 384c0 247.4-200.6 448-448 448S64 631.4 64 384c0-242 191.9-439.2 431.7-447.7l7.8-0.2 7.5 0.2h393.5c1.5-0.1 3-0.2 4.5-0.2s3 0.1 4.4 0.2h1c0.1 0 0.2 0.1 0.3 0.1 24.3 2.9 43.2 24 43.2 49.6 0 11.2-3.6 21.5-9.7 29.8-0.2 0.9-0.4 1.5-0.4 1.5z m-435.8-11c-212.1 0-384 170.5-384 380.8S299.9 768 512 768s384-170.5 384-380.8c0-84.6-27.8-164.9-78.4-230.7l-14.1-18.3L890.3 6H614.6l-102.6 0.3zM629.3 512h-256c-17.7 0-32-14.3-32-32s14.3-32 32-32h256c17.7 0 32 14.3 32 32s-14.3 32-32 32z"  horiz-adv-x="1024" />

    
    <glyph glyph-name="comment_wangyi" unicode="&#58995;" d="M64-53.6V613.2c0 119.5 88.6 208.4 208.4 208.4h500.1c98.9 0 187.5-88.9 187.5-208.4v-312.6c0-100.6-88.6-189.4-187.5-187.5H272.4L64-53.6z m187.5 229.2h520.9c64.4-3.8 125 57.3 125 125V613.2c0 84.8-60.6 145.9-125 145.9h-500c-85.2 0-145.9-61-145.9-145.9v-541.8l125 104.2z"  horiz-adv-x="1024" />

    
    <glyph glyph-name="comment_baidutieba" unicode="&#58996;" d="M589.9 832c210.6 0 378.6-169.3 378.6-378.6v-66.8c0-208.4-167.9-377.8-378.6-378.6H434c-8 0.5-30.2 0.5-66.8 0-52.3-16.7-100.7-32.9-133.6-44.5l-30.9-12.7c-114.8-37.5-137.8-1.3-147.2 79.5V498C67.7 687.8 247.7 832 434.1 832h155.8z m0-66.8H434c-165.3 0-303.4-139.3-311.8-311.8v-400.8c3.8-43.9 9.1-47.8 49.7-39.3l55.4 17c35.9 9.4 75 27.6 139.9 44.5 22.7 4.2 46.9 1.3 66.8 0h155.9c173.7 1.3 311.8 140.6 311.8 311.8v66.8c0 172.5-138.1 311.8-311.8 311.8zM300.4 453.4c24.6 0 44.5-19.9 44.5-44.5s-19.9-44.5-44.5-44.5-44.5 19.9-44.5 44.5 19.9 44.5 44.5 44.5z m222.7 0c24.6 0 44.5-19.9 44.5-44.5s-19.9-44.5-44.5-44.5-44.5 19.9-44.5 44.5 19.9 44.5 44.5 44.5z m222.7 0c24.6 0 44.5-19.9 44.5-44.5s-19.9-44.5-44.5-44.5-44.5 19.9-44.5 44.5 19.9 44.5 44.5 44.5z"  horiz-adv-x="1024" />

    
    <glyph glyph-name="comment_tengxun" unicode="&#58997;" d="M845.3 832c52.6 0 95.2-42.6 95.2-95.2v-571.4c0-52.6-42.6-95.2-95.2-95.2H336.9L166.3-58.9c-41.5-11.8-68.6-3-81.3 26.2l-1.5 3.8V736.8c0 52.6 42.6 95.2 95.2 95.2h666.6zM297.7 498.7c-26.3 0-47.6-21.3-47.6-47.6s21.3-47.6 47.6-47.6 47.6 21.3 47.6 47.6-21.3 47.6-47.6 47.6z m214.3 0c-26.3 0-47.6-21.3-47.6-47.6s21.3-47.6 47.6-47.6 47.6 21.3 47.6 47.6-21.3 47.6-47.6 47.6z m214.3 0c-26.3 0-47.6-21.3-47.6-47.6s21.3-47.6 47.6-47.6 47.6 21.3 47.6 47.6-21.3 47.6-47.6 47.6z"  horiz-adv-x="1024" />

    
    <glyph glyph-name="comment_xinlangweibo" unicode="&#58998;" d="M817.5 821.8c81.8 0 142.5-61.1 142.5-142.5V272c0-82-60.8-143.1-142.5-142.5H695.3L512-53.8 308.4 129.5H206.5C124.8 128.9 64 190 64 272V679.3c0 81.5 60.8 142.5 142.5 142.5h611z m20.3-61.1H186.2c-35.4 0-61.1-25.5-61.1-61.1V272c0-37.9 25.7-83.7 61.1-81.5h142.5L512 27.9l162.9 162.6h162.9c35.4-2.3 61.1 43.6 61.1 81.5V699.6c0 35.7-25.7 61.1-61.1 61.1zM338.9 516.4c16.9 0 30.5-13.7 30.5-30.5 0-16.9-13.7-30.5-30.5-30.5H237.1c-16.9 0-30.5 13.7-30.5 30.5 0 16.9 13.7 30.5 30.5 30.5h101.8z m224 0c16.9 0 30.5-13.7 30.5-30.5 0-16.9-13.7-30.5-30.5-30.5H461.1c-16.9 0-30.5 13.7-30.5 30.5 0 16.9 13.7 30.5 30.5 30.5h101.8z m224 0c16.9 0 30.5-13.7 30.5-30.5 0-16.9-13.7-30.5-30.5-30.5H685.1c-16.9 0-30.5 13.7-30.5 30.5 0 16.9 13.7 30.5 30.5 30.5h101.8z"  horiz-adv-x="1024" />

    
    <glyph glyph-name="comment_xinlangxinwen" unicode="&#58999;" d="M817.5 811.6c74.2 0 142.5-67.8 142.5-142.5v-448c0-89.1-68.4-157-142.5-162.9H328.7L165.8-43.6C136-64 72-60 64-2.9v672c0 74.7 68.4 142.5 142.5 142.5h611z m0-61.1H226.9c-60.8 0-101.8-40.7-101.8-81.5v-631.3c4.9-31.8 37.6-9.6 37.6-9.6l145.7 91.1h509.1c40.4 5.3 81.5 46 81.5 101.8V669c-0.1 40.9-41.1 81.5-81.5 81.5z m-478.6-285c28.1 0 50.9-22.8 50.9-50.9s-22.8-50.9-50.9-50.9c-28.1 0-50.9 22.8-50.9 50.9s22.8 50.9 50.9 50.9z m183.3 0c28.1 0 50.9-22.8 50.9-50.9s-22.8-50.9-50.9-50.9c-28.1 0-50.9 22.8-50.9 50.9s22.8 50.9 50.9 50.9z m183.3 0c28.1 0 50.9-22.8 50.9-50.9s-22.8-50.9-50.9-50.9-50.9 22.8-50.9 50.9 22.7 50.9 50.9 50.9z"  horiz-adv-x="1024" />

    
    <glyph glyph-name="share_xinlangweibo" unicode="&#59000;" d="M593.4 750.5v-61.1H186.3c-30.5 0-61.3-32.9-61.3-63.5v-483.8c0-30.7 32.7-63.5 63.3-63.5h647.3c30.5 0 63.3 32.9 63.3 63.5V384H960v-235.7c0-72.3-59-130.9-131.8-130.9H195.8C123 17.5 64 76.1 64 148.4V619.6c0 72.3 59 130.9 131.8 130.9h397.6z m366.6 0v-221.4h-56.9V646.9L518.8 264.4l-49.5 49.5L851.2 694H736.1v56.6H960z"  horiz-adv-x="1024" />

    
    <glyph glyph-name="share_jinritoutiao" unicode="&#59001;" d="M874.3 572.1L642.9 822.4c-11.2 12.1-30.1 12.9-42.3 1.7-12.1-11.2-12.9-30.1-1.7-42.3l194.6-210.5H337.2c-1.3 0-2.5-0.1-3.8-0.2-67.7-8.6-122.4-49.9-158.3-119.4-25.8-50-32.8-97.5-33.1-99.5-0.2-1.4-0.3-2.8-0.3-4.2v-381.9c0-16.5 13.4-29.9 29.9-29.9s29.9 13.4 29.9 29.9V345.5c1.4 8.2 8.1 42.6 26.7 78.6 26.5 51.3 63.8 80.6 110.9 87.3h437.6L598.5 309.3c-10.9-12.4-9.7-31.3 2.6-42.2 5.7-5 12.7-7.5 19.8-7.5 8.3 0 16.5 3.4 22.4 10.1L874.7 532c10.2 11.5 10 28.8-0.4 40.1z"  horiz-adv-x="1024" />

    
    <glyph glyph-name="mdy_like" unicode="&#59002;" d="M512 9.7c-5.4 0-10.7 1.8-15.1 5.5L164.5 296.1c-0.5 0.4-0.9 0.8-1.4 1.3l-23.4 23.3C90.9 369.1 64 433.4 64 501.9c0 68.5 26.9 132.9 75.7 181.3 48.8 48.4 113.7 75.1 182.7 75.1 69 0 133.9-26.7 182.7-75.1l7-6.9 7 6.9c48.8 48.4 113.7 75.1 182.7 75.1 69 0 133.9-26.7 182.7-75.1 48.8-48.4 75.7-112.8 75.7-181.3 0-68.5-26.9-132.9-75.7-181.3L861 297.3c-0.4-0.4-0.9-0.9-1.4-1.2L527.1 15.2c-4.3-3.6-9.7-5.5-15.1-5.5zM206.8 336.4L512 81l305.2 255.4 22 21.6c79.6 78.2 79.6 205.5 0 283.7-38.6 37.9-89.8 58.8-144.4 58.8-54.5 0-105.8-20.9-144.4-58.8l-22.6-22.2c-4.2-4.1-9.9-6.5-15.9-6.5s-11.7 2.3-15.9 6.5l-22.6 22.2c-38.6 37.9-89.8 58.8-144.4 58.8-54.5 0-105.8-20.9-144.4-58.8-38.6-37.9-59.8-88.3-59.8-141.8 0-53.6 21.2-104 59.8-141.8l22.2-21.7z"  horiz-adv-x="1024" />

    
    <glyph glyph-name="mdy_play" unicode="&#59003;" d="M512-64C264.6-64 64 136.6 64 384S264.6 832 512 832s448-200.6 448-448-200.6-448-448-448z m0 836c-214.3 0-388-173.7-388-388s173.7-388 388-388 388 173.7 388 388c-0.3 214.2-173.8 387.7-388 388zM406.9 199.4c-4.6 0-9.2 1.2-13.1 3.6-8.3 4.5-13.6 13.2-13.7 22.7V542.3c0.1 9.5 5.4 18.2 13.7 22.7 8.1 4.8 18.2 4.8 26.3 0l263.4-158.3c12.5-7.3 16.8-23.4 9.5-35.9-2.3-3.9-5.5-7.2-9.5-9.5L422.4 203c-4.7-2.7-10.1-3.9-15.5-3.6zM437.8 490v-209.6l172.5 103.7L437.8 490z"  horiz-adv-x="1024" />

    
    <glyph glyph-name="mfh_comment" unicode="&#59004;" d="M311.4 119.5L210.8-18.4 194-27c-56.8-21.5-110.3 0.9-127.4 61.3L64 44.6v661c0 53.8 43.6 97.4 97.4 97.4h701.2c53.8 0 97.4-43.6 97.4-97.4v-488.7c0-53.8-43.6-97.4-97.4-97.4H311.4z m551.2 625H161.4c-21.5 0-39-17.4-39-39v-653.7l0.8-3.1c6.5-22.8 23.3-29.1 50.6-18.7l101.5 139 5.8 8.8h581.5c21.5 0 39 17.4 39 39V705.6c0 21.5-17.5 38.9-39 38.9z"  horiz-adv-x="1024" />

    
    <glyph glyph-name="mgb_posting" unicode="&#59005;" d="M512 822.3v-58.4H161.4c-21.5 0-39-17.5-39-39.2v-681.3c0-21.6 17.4-39.2 39-39.2h701.2c21.5 0 39 17.5 39 39.2V374.3H960v-330.7c0-54-43.6-97.9-97.4-97.9H161.4c-53.8 0-97.4 43.8-97.4 97.9V724.4c0 54 43.6 97.9 97.4 97.9H512z m359.7-47.8c11.1 11.6 29.4 11.8 40.7 0.4 11.3-11.4 11.5-30 0.4-41.6L464 266.2c-11.1-11.6-29.4-11.8-40.7-0.4-11.3 11.4-11.5 30-0.4 41.6l448.8 467.1z"  horiz-adv-x="1024" />

    
    <glyph glyph-name="mgb_comment" unicode="&#59006;" d="M855.9 832c50 0 90.5-40.5 90.5-90.5v-579.3c0-50-40.5-90.5-90.5-90.5H629.4L523.4-64 418.2 71.7H168.1c-50 0-90.5 40.5-90.5 90.5V741.5c0 50 40.5 90.5 90.5 90.5h687.8z m-5.2-60H173.3c-19.7 0-35.7-16-35.7-35.7v-570.5c0-19.7 16-35.7 35.7-35.7h272.6l77.5-100 78.1 100h249.3c19.7 0 35.7 16 35.7 35.7V736.3c-0.1 19.7-16.1 35.7-35.8 35.7zM575.4 400.4c15 0 27.2-13.4 27.2-30s-12.2-30-27.2-30H303.8c-15 0-27.2 13.4-27.2 30s12.2 30 27.2 30h271.6z m144.8 181c15 0 27.2-13.4 27.2-30s-12.2-30-27.2-30H303.8c-15 0-27.2 13.4-27.2 30s12.2 30 27.2 30h416.4z"  horiz-adv-x="1024" />

    
    <glyph glyph-name="mxq_comment" unicode="&#59007;" d="M161.4 121c-53.8 0.7-97.4 44.6-97.4 97.4V724.8c0 53.4 43.6 97.4 97.4 97.4h701.2c53.8 0 97.4-44 97.4-97.4v-506.4c0-52.8-43.6-96.7-97.4-97.4h-409L219.9-54.3V121h-58.5z m701.2 642.8H161.4c-21.5 0-39-17.5-39-39v-506.4c0-18.6 17.4-36.2 39-39h116.9v-116.9l155.8 116.9h428.5c21.5 2.8 39 20.3 39 39V724.8c0 21.5-17.5 39-39 39z"  horiz-adv-x="1024" />

    
    <glyph glyph-name="mydzx_comment" unicode="&#59008;" d="M64.7 16.4l0.2-1.8c0.6-5.2 7.2-51.6 44.9-70.9 10-5.1 20.9-7.7 32.6-7.7 2.7 0 5.4 0.1 8.2 0.4 14.4 1.4 30 6.7 46.2 15.6 62.9 34.7 119.8 62.4 137.9 71.1h448.1c97.3 0 176.5 79.2 176.5 176.5V655.5c0 97.3-79.2 176.5-176.5 176.5H242.2c-97.3 0-176.5-79.2-176.5-176.5m59.8 0c0 31 12.2 60.3 34.3 82.4s51.4 34.3 82.4 34.3h540.6c31 0 60.3-12.2 82.4-34.3s34.3-51.4 34.3-82.4v-455.8c0-31-12.2-60.3-34.3-82.4S813.8 83 782.8 83H321.2l-6.1-2.8c-2.8-1.3-69.6-32.8-147.3-75.7-13.7-7.5-25.2-10.4-30.8-7.5-6.6 3.3-11.2 16.2-12.6 23.5"  horiz-adv-x="1024" />

    
    <glyph glyph-name="refresh" unicode="&#59009;" d="M949.6 369.4c0 16.9-13.8 30.6-30.8 30.6-16.3 0-29.6-12.6-30.7-28.5v-0.4c0-0.6-0.1-1.2-0.1-1.8v-0.5c-1.2-98.7-40.2-191.4-110.1-261.3-71.1-71.1-165.6-110.2-266.1-110.2-100.5 0-195 39.1-266.1 110.2s-110 165.5-110 266 39.1 195 110.2 266.1S411.5 749.8 512 749.8s195-39.1 266.1-110.2c7.7-7.7 15.1-15.8 22.1-24.1H627.9c-16.9 0-30.6-13.7-30.6-30.6s13.7-30.6 30.6-30.6h256.7V801.4c0 16.9-13.7 30.6-30.6 30.6s-30.6-13.7-30.6-30.6v-120.5c-0.7 0.7-1.4 1.4-2 2.1-40.2 40.2-87 71.7-139.1 93.8C628.3 799.6 571 811.2 512 811.2s-116.4-11.6-170.3-34.4c-52.1-22-98.9-53.6-139.1-93.8-40.2-40.2-71.7-87-93.8-139.1-22.8-54-34.4-111.3-34.4-170.3 0-59.1 11.6-116.4 34.4-170.3 22-52.1 53.6-98.9 93.8-139.1 40.2-40.2 87-71.7 139.1-93.8C395.7-52.4 453-64 512-64s116.4 11.6 170.3 34.4c52.1 22 98.9 53.6 139.1 93.8 40.2 40.2 71.7 87 93.8 139.1 21.8 51.5 33.3 106.1 34.3 162.4 0 1.1 0.1 2.4 0.1 3.7z"  horiz-adv-x="1024" />

    


  </font>
</defs>
</svg>
